<svg width="80" height="80" viewBox="0 0 80 80" fill="none" xmlns="http://www.w3.org/2000/svg">
<path d="M62.6376 36.6833H25.4043L41.671 20.4166C42.971 19.1166 42.971 16.9833 41.671 15.6833C41.0482 15.0591 40.2027 14.7083 39.321 14.7083C38.4392 14.7083 37.5937 15.0591 36.971 15.6833L15.0043 37.65C13.7043 38.95 13.7043 41.05 15.0043 42.35L36.971 64.3166C38.271 65.6166 40.371 65.6166 41.671 64.3166C42.971 63.0166 42.971 60.9166 41.671 59.6166L25.4043 43.35H62.6376C64.471 43.35 65.971 41.85 65.971 40.0166C65.971 38.1833 64.471 36.6833 62.6376 36.6833Z" fill="#6D7D8B"/>
</svg>
