<svg width="80" height="80" viewBox="0 0 80 80" fill="none" xmlns="http://www.w3.org/2000/svg">
<path d="M17.3626 43.3333H54.596L38.3293 59.6C37.0293 60.9 37.0293 63.0333 38.3293 64.3333C39.6293 65.6333 41.7293 65.6333 43.0293 64.3333L64.996 42.3666C66.296 41.0666 66.296 38.9666 64.996 37.6666L43.0626 15.6666C42.4399 15.0425 41.5944 14.6917 40.7126 14.6917C39.8309 14.6917 38.9854 15.0425 38.3626 15.6666C37.0626 16.9666 37.0626 19.0666 38.3626 20.3666L54.596 36.6666H17.3626C15.5293 36.6666 14.0293 38.1666 14.0293 40C14.0293 41.8333 15.5293 43.3333 17.3626 43.3333Z" fill="#6D7D8B"/>
</svg>
