<svg width="41" height="40" viewBox="0 0 41 40" fill="none" xmlns="http://www.w3.org/2000/svg">
<path d="M14.5315 40H3.04733C1.36801 40 0.00195312 38.6339 0.00195312 36.9546V25.4705C0.00195312 23.7912 1.36801 22.4251 3.04733 22.4251H14.5315C16.2108 22.4251 17.5768 23.7912 17.5768 25.4705V36.9546C17.5766 38.6339 16.2108 40 14.5315 40Z" fill="#747684"/>
<path d="M36.9572 40H25.4731C23.7938 40 22.4277 38.6339 22.4277 36.9546V25.4705C22.4277 23.7912 23.7938 22.4251 25.4731 22.4251H36.9572C38.6366 22.4251 40.0026 23.7912 40.0026 25.4705V36.9546C40.0026 38.6339 38.6366 40 36.9572 40Z" fill="#747684"/>
<path d="M14.5315 17.5749H3.04733C1.36801 17.5749 0.00195312 16.209 0.00195312 14.5297V3.04552C0.00195312 1.3662 1.36801 0.000148773 3.04733 0.000148773H14.5315C16.2108 0.000148773 17.5768 1.3662 17.5768 3.04552V14.5297C17.5766 16.209 16.2108 17.5749 14.5315 17.5749Z" fill="#747684"/>
<path d="M36.9572 17.5749H25.4731C23.7938 17.5749 22.4277 16.2088 22.4277 14.5295V3.04537C22.4277 1.36605 23.7938 -3.8147e-06 25.4731 -3.8147e-06H36.9572C38.6366 0.000131607 40.0026 1.36619 40.0026 3.04551V14.5296C40.0026 16.209 38.6366 17.5749 36.9572 17.5749Z" fill="#747684"/>
</svg>
