<?xml version="1.0" encoding="iso-8859-1"?>
<!-- Generator: Adobe Illustrator 19.0.0, SVG Export Plug-In . SVG Version: 6.00 Build 0)  -->
<svg version="1.1" id="Capa_1" xmlns="http://www.w3.org/2000/svg" xmlns:xlink="http://www.w3.org/1999/xlink" x="0px" y="0px"
	 viewBox="0 0 389.12 389.12" style="enable-background:new 0 0 389.12 389.12;" xml:space="preserve">
<g>
	<g>
		<path d="M215.072,0h-41.027c-30.092,0-54.579,24.516-54.579,54.653v136.494c0,3.77,3.053,6.827,6.827,6.827h136.533
			c3.773,0,6.827-3.057,6.827-6.827V54.653C269.653,24.516,245.166,0,215.072,0z M256,184.32H133.12V54.653
			c0-22.607,18.36-40.999,40.926-40.999h41.028C237.64,13.653,256,32.046,256,54.653V184.32z"/>
	</g>
</g>
<g>
	<g>
		<path d="M119.467,184.32v44.373c0,24.467,18.359,44.373,40.926,44.373h68.335c22.566,0,40.926-19.907,40.926-44.373V184.32
			H119.467z M255.998,228.693c0,16.94-12.233,30.72-27.273,30.72h-68.333c-15.039,0-27.273-13.78-27.273-30.72v-30.72h122.878
			V228.693z"/>
	</g>
</g>
<g>
	<g>
		<path d="M167.253,61.44H133.12c-3.773,0-6.827,3.057-6.827,6.827s3.053,6.827,6.827,6.827h34.133c3.773,0,6.827-3.057,6.827-6.827
			S171.027,61.44,167.253,61.44z"/>
	</g>
</g>
<g>
	<g>
		<path d="M167.253,88.747H133.12c-3.773,0-6.827,3.057-6.827,6.827c0,3.77,3.053,6.827,6.827,6.827h34.133
			c3.773,0,6.827-3.057,6.827-6.827C174.08,91.803,171.027,88.747,167.253,88.747z"/>
	</g>
</g>
<g>
	<g>
		<path d="M256,61.44h-34.133c-3.773,0-6.827,3.057-6.827,6.827s3.053,6.827,6.827,6.827H256c3.773,0,6.827-3.057,6.827-6.827
			S259.773,61.44,256,61.44z"/>
	</g>
</g>
<g>
	<g>
		<path d="M256,88.747h-34.133c-3.773,0-6.827,3.057-6.827,6.827c0,3.77,3.053,6.827,6.827,6.827H256
			c3.773,0,6.827-3.057,6.827-6.827C262.827,91.803,259.773,88.747,256,88.747z"/>
	</g>
</g>
<g>
	<g>
		<path d="M167.253,116.053H133.12c-3.773,0-6.827,3.057-6.827,6.827s3.053,6.827,6.827,6.827h34.133
			c3.773,0,6.827-3.057,6.827-6.827S171.027,116.053,167.253,116.053z"/>
	</g>
</g>
<g>
	<g>
		<path d="M256,116.053h-34.133c-3.773,0-6.827,3.057-6.827,6.827s3.053,6.827,6.827,6.827H256c3.773,0,6.827-3.057,6.827-6.827
			S259.773,116.053,256,116.053z"/>
	</g>
</g>
<g>
	<g>
		<path d="M167.253,143.36H133.12c-3.773,0-6.827,3.057-6.827,6.827s3.053,6.827,6.827,6.827h34.133
			c3.773,0,6.827-3.057,6.827-6.827S171.027,143.36,167.253,143.36z"/>
	</g>
</g>
<g>
	<g>
		<path d="M256,143.36h-34.133c-3.773,0-6.827,3.057-6.827,6.827s3.053,6.827,6.827,6.827H256c3.773,0,6.827-3.057,6.827-6.827
			S259.773,143.36,256,143.36z"/>
	</g>
</g>
<g>
	<g>
		<path d="M296.96,138.718c-3.773,0-6.827,3.057-6.827,6.827v73.999c0,37.04-30.626,67.176-68.273,67.176h-54.6
			c-37.647,0-68.273-30.136-68.273-67.176v-73.999c0-3.77-3.053-6.827-6.827-6.827s-6.827,3.057-6.827,6.827v73.999
			c0,44.57,36.753,80.829,81.927,80.829h54.6c45.174,0,81.927-36.26,81.927-80.829v-73.999
			C303.787,141.775,300.733,138.718,296.96,138.718z"/>
	</g>
</g>
<g>
	<g>
		<path d="M194.56,295.729c-3.773,0-6.827,3.057-6.827,6.827v75.093c0,3.77,3.053,6.827,6.827,6.827s6.827-3.057,6.827-6.827
			v-75.093C201.387,298.786,198.333,295.729,194.56,295.729z"/>
	</g>
</g>
<g>
	<g>
		<path d="M249.173,375.467H139.947c-3.773,0-6.827,3.057-6.827,6.827c0,3.77,3.053,6.827,6.827,6.827h109.227
			c3.773,0,6.827-3.057,6.827-6.827C256,378.523,252.947,375.467,249.173,375.467z"/>
	</g>
</g>
<g>
</g>
<g>
</g>
<g>
</g>
<g>
</g>
<g>
</g>
<g>
</g>
<g>
</g>
<g>
</g>
<g>
</g>
<g>
</g>
<g>
</g>
<g>
</g>
<g>
</g>
<g>
</g>
<g>
</g>
</svg>
