<svg width="490" height="449" viewBox="0 0 490 449" fill="none" xmlns="http://www.w3.org/2000/svg">
<path d="M211.056 1.58669C216.624 -1.06931 223.184 -0.365312 227.984 3.50669L383.632 128.019H458C475.632 128.019 490 142.387 490 160.019V288.019C490 305.683 475.632 320.019 458 320.019H383.632L228.016 444.531C225.104 446.835 221.552 448.019 218 448.019C215.632 448.019 213.264 447.475 211.056 446.419C205.52 443.763 202 438.163 202 432.019V16.0187C202 9.87469 205.52 4.27469 211.056 1.58669Z" fill="black"/>
<path d="M125.714 110.614C133.186 104.393 145.171 104.489 152.529 110.743C159.887 117.061 159.811 127.195 152.377 133.448C123.704 157.373 107.927 189.539 107.927 224.014C107.927 258.49 123.704 290.656 152.377 314.58C159.811 320.77 159.887 330.936 152.529 337.254C148.812 340.429 143.919 342 139.065 342C134.248 342 129.431 340.461 125.714 337.35C89.7599 307.428 70 267.148 70 224.014C70 180.88 89.7599 140.6 125.714 110.614Z" fill="black"/>
<path d="M72.8338 65.648C79.8057 59.4029 90.9891 59.4669 97.8903 65.7441C104.756 72.0212 104.685 82.1736 97.7841 88.3867C57.545 124.48 35.3906 172.648 35.3906 224.018C35.3906 275.388 57.545 323.524 97.7841 359.618C104.685 365.863 104.756 376.015 97.8903 382.292C94.3866 385.431 89.8566 387 85.3266 387C80.832 387 76.302 385.463 72.8338 382.356C25.8351 340.242 2.49242e-07 284.003 2.49242e-07 224.018C2.49242e-07 164.033 25.8351 107.795 72.8338 65.648Z" fill="black"/>
</svg>
