<svg width="40" height="40" viewBox="0 0 40 40" fill="none" xmlns="http://www.w3.org/2000/svg">
<path d="M39.374 0.440447C38.9765 0.0983375 38.4485 -0.0555688 37.9274 0.018025L12.5039 3.62037C11.6091 3.74717 10.9447 4.50717 10.9447 5.40357V12.6083V26.5215C9.86905 25.8999 8.62038 25.542 7.28829 25.542C3.26957 25.542 0 28.785 0 32.771C0 36.757 3.26949 40 7.28821 40C11.3069 40 14.5765 36.757 14.5765 32.771V14.1705L36.3681 11.0828V22.9191C35.2925 22.2975 34.0438 21.9396 32.7117 21.9396C28.693 21.9396 25.4234 25.1826 25.4234 29.1686C25.4234 33.1546 28.693 36.3976 32.7117 36.3976C36.7304 36.3976 40 33.1546 40 29.1686V9.00592V1.80115C40.0001 1.27896 39.7717 0.782557 39.374 0.440447Z" fill="#747684"/>
</svg>
