<svg width="22" height="24" viewBox="0 0 22 24" fill="none" xmlns="http://www.w3.org/2000/svg">
<path d="M4.02756 23.3244C3.42514 23.9299 2.51628 24.1126 1.72696 23.7864C0.937123 23.4612 0.421875 22.6901 0.421875 21.8366V2.11095C0.421875 1.2564 0.937123 0.486413 1.72696 0.16067C2.5168 -0.165594 3.42514 0.0171141 4.02756 0.622661L13.3521 9.99349C14.4421 11.0887 14.4421 12.8584 13.3521 13.953L4.02756 23.3244Z" fill="white"/>
<path d="M18.9695 24C17.5272 24 16.3594 22.8317 16.3594 21.3899V2.61011C16.3594 1.16829 17.5272 0 18.9695 0C20.4114 0 21.5797 1.16829 21.5797 2.61011V21.3899C21.5797 22.8312 20.4109 24 18.9695 24Z" fill="white"/>
</svg>
