<svg width="563" height="449" viewBox="0 0 563 449" fill="none" xmlns="http://www.w3.org/2000/svg">
<path d="M278.944 1.58669C273.376 -1.06931 266.816 -0.365312 262.016 3.50669L106.368 128.019H32C14.368 128.019 0 142.387 0 160.019V288.019C0 305.683 14.368 320.019 32 320.019H106.368L261.984 444.531C264.896 446.835 268.448 448.019 272 448.019C274.368 448.019 276.736 447.475 278.944 446.419C284.48 443.763 288 438.163 288 432.019V16.0187C288 9.87469 284.48 4.27469 278.944 1.58669Z" fill="black"/>
<path d="M364.286 110.614C356.814 104.393 344.829 104.489 337.471 110.743C330.113 117.061 330.189 127.195 337.623 133.448C366.296 157.373 382.073 189.539 382.073 224.014C382.073 258.49 366.296 290.656 337.623 314.58C330.189 320.77 330.113 330.936 337.471 337.254C341.188 340.429 346.081 342 350.935 342C355.752 342 360.569 340.461 364.286 337.35C400.24 307.428 420 267.148 420 224.014C420 180.88 400.24 140.6 364.286 110.614Z" fill="black"/>
<path d="M417.166 65.648C410.194 59.4029 399.011 59.4669 392.11 65.7441C385.244 72.0212 385.315 82.1736 392.216 88.3867C432.455 124.48 454.609 172.648 454.609 224.018C454.609 275.388 432.455 323.524 392.216 359.618C385.315 365.863 385.244 376.015 392.11 382.292C395.613 385.431 400.143 387 404.673 387C409.168 387 413.698 385.463 417.166 382.356C464.165 340.242 490 284.003 490 224.018C490 164.033 464.165 107.795 417.166 65.648Z" fill="black"/>
<path d="M490.166 6.38745C483.194 -2.19482 472.011 -2.10679 465.11 6.51948C458.244 15.1458 458.315 29.0974 465.216 37.6357C505.455 87.2368 527.609 153.43 527.609 224.025C527.609 294.62 505.455 360.769 465.216 410.37C458.315 418.952 458.244 432.904 465.11 441.53C468.613 445.843 473.143 448 477.673 448C482.168 448 486.698 445.887 490.166 441.618C537.165 383.743 563 306.459 563 224.025C563 141.591 537.165 64.3067 490.166 6.38745Z" fill="black"/>
</svg>
