<svg width="22" height="24" viewBox="0 0 22 24" fill="none" xmlns="http://www.w3.org/2000/svg">
<path d="M17.9724 0.675611C18.5749 0.0700643 19.4837 -0.112643 20.273 0.213621C21.0629 0.538842 21.5781 1.30987 21.5781 2.16338L21.5781 21.8891C21.5781 22.7436 21.0629 23.5136 20.273 23.8393C19.4832 24.1656 18.5749 23.9829 17.9724 23.3773L8.64786 14.0065C7.55786 12.9113 7.55786 11.1416 8.64786 10.047L17.9724 0.675611Z" fill="white"/>
<path d="M3.03045 5.73026e-07C4.47283 5.73026e-07 5.64063 1.16829 5.64063 2.61011L5.64063 21.3899C5.64062 22.8317 4.47283 24 3.03045 24C1.58859 24 0.42028 22.8317 0.42028 21.3899L0.42028 2.61011C0.42028 1.16881 1.58912 5.73026e-07 3.03045 5.73026e-07Z" fill="white"/>
</svg>
