<svg width="40" height="40" viewBox="0 0 40 40" fill="none" xmlns="http://www.w3.org/2000/svg">
<path d="M34.5511 31.695C33.6811 31.0075 32.6211 30.5125 31.4711 30.2725L25.9886 29.1725C25.4136 29.0625 24.9986 28.5475 24.9986 27.9475V26.69C25.3511 26.195 25.6836 25.5375 26.0311 24.85C26.3011 24.3175 26.7086 23.515 26.9111 23.3075C28.0211 22.1925 29.0936 20.94 29.4261 19.325C29.7361 17.81 29.4311 17.015 29.0736 16.375C29.0736 14.7775 29.0236 12.7775 28.6461 11.3225C28.6011 9.3525 28.2436 8.245 27.3436 7.275C26.7086 6.5875 25.7736 6.4275 25.0211 6.3C24.7261 6.25 24.3186 6.18 24.1686 6.1C22.8361 5.38 21.5186 5.0275 19.9461 5C16.6536 5.135 12.6061 7.23 11.2511 10.965C10.8311 12.1025 10.8736 13.97 10.9086 15.47L10.8761 16.3725C10.5536 17.0025 10.2361 17.8025 10.5486 19.3225C10.8786 20.94 11.9511 22.195 13.0811 23.325C13.2661 23.515 13.6836 24.325 13.9586 24.86C14.3111 25.545 14.6461 26.2 14.9986 26.6925V27.95C14.9986 28.5475 14.5811 29.0625 14.0036 29.175L8.51611 30.275C7.37361 30.5175 6.31361 31.0075 5.44611 31.695C5.17611 31.9125 5.00611 32.23 4.97861 32.575C4.95111 32.92 5.06611 33.2575 5.29861 33.515C9.03361 37.635 14.3911 40 19.9986 40C25.6061 40 30.9661 37.6375 34.6986 33.515C34.9311 33.2575 35.0486 32.9175 35.0186 32.5725C34.9911 32.2275 34.8211 31.91 34.5511 31.695Z" fill="#747684"/>
</svg>
