<svg width="40" height="40" viewBox="0 0 40 40" fill="none" xmlns="http://www.w3.org/2000/svg">
<g clip-path="url(#clip0)">
<path d="M13.5225 10.2834L17.3561 12.4969C17.3895 12.516 17.4216 12.5363 17.4533 12.5571L21.2937 14.7744C22.1962 15.293 22.5073 16.4449 21.9887 17.3472C21.8116 17.6553 21.5608 17.8945 21.2711 18.0552L17.3544 20.3163L17.356 20.3196L13.4114 22.5972C12.5091 23.1198 11.3539 22.8119 10.8313 21.9096C10.6585 21.6111 10.5764 21.2851 10.5768 20.9634H10.5726V16.4083V11.8531C10.5726 10.808 11.42 9.96067 12.4652 9.96067C12.8569 9.96067 13.2207 10.0795 13.5225 10.2834ZM32.0311 28.9061V7.96888V3.90624C32.0311 2.18749 30.625 0.78125 28.9061 0.78125H3.90624C2.18749 0.78125 0.78125 2.18749 0.78125 3.90624V28.9061C0.78125 30.6249 2.18742 32.0311 3.90624 32.0311H7.9688H28.9061C30.625 32.0311 32.0311 30.6249 32.0311 28.9061Z" fill="#747684"/>
<path d="M32.031 7.96895V28.9062C32.031 30.625 30.6248 32.0312 28.906 32.0312H7.96875V36.0938C7.96875 37.8126 9.37499 39.2188 11.0937 39.2188H36.0936C37.8125 39.2188 39.2186 37.8126 39.2186 36.0938V11.0939C39.2186 9.37512 37.8125 7.96887 36.0936 7.96887L32.031 7.96895Z" fill="#747684"/>
<path d="M36.0937 7.18763H32.8124V3.90623C32.8124 1.75234 31.06 0 28.9061 0H3.90623C1.75234 0 0 1.75234 0 3.90623V28.9061C0 31.06 1.75234 32.8124 3.90623 32.8124H7.18755V36.0938C7.18755 38.2477 8.93989 40 11.0938 40H36.0937C38.2476 40 39.9999 38.2477 39.9999 36.0938V11.0938C40 8.93989 38.2477 7.18763 36.0937 7.18763ZM1.56249 28.9061V3.90623C1.56249 2.6139 2.6139 1.56249 3.90623 1.56249H28.9061C30.1985 1.56249 31.2499 2.6139 31.2499 3.90623V28.9061C31.2499 30.1985 30.1985 31.2499 28.9061 31.2499H3.90623C2.6139 31.2499 1.56249 30.1986 1.56249 28.9061ZM38.4374 36.0938C38.4374 37.3861 37.386 38.4375 36.0937 38.4375H11.0938C9.80145 38.4375 8.75004 37.3861 8.75004 36.0938V32.8124H28.9061C31.06 32.8124 32.8124 31.06 32.8124 28.9061V8.75012H36.0937C37.386 8.75012 38.4374 9.80152 38.4374 11.0939V36.0938Z" fill="#747684"/>
<path d="M11.1129 35.7031H11.0918C10.6603 35.7031 10.3105 36.0529 10.3105 36.4844C10.3105 36.9159 10.6603 37.2656 11.0918 37.2656H11.1129C11.5444 37.2656 11.8941 36.9159 11.8941 36.4844C11.8941 36.0529 11.5444 35.7031 11.1129 35.7031Z" fill="#747684"/>
<path d="M36.0951 35.7031H13.3574C12.9259 35.7031 12.5762 36.0529 12.5762 36.4844C12.5762 36.9159 12.9259 37.2656 13.3574 37.2656H36.0951C36.5265 37.2656 36.8764 36.9159 36.8764 36.4844C36.8764 36.0529 36.5265 35.7031 36.0951 35.7031Z" fill="#747684"/>
<path d="M8.57617 4.29687H8.59726C9.02875 4.29687 9.37851 3.9471 9.37851 3.51562C9.37851 3.08414 9.02875 2.73438 8.59726 2.73438H8.57617C8.14469 2.73438 7.79492 3.08414 7.79492 3.51562C7.79492 3.9471 8.14469 4.29687 8.57617 4.29687Z" fill="#747684"/>
<path d="M6.33085 2.73438H3.90625C3.47476 2.73438 3.125 3.08414 3.125 3.51562C3.125 3.9471 3.47476 4.29687 3.90625 4.29687H6.33077C6.76225 4.29687 7.11202 3.9471 7.11202 3.51562C7.11209 3.08414 6.76233 2.73438 6.33085 2.73438Z" fill="#747684"/>
<path d="M10.1549 22.3011C10.6307 23.1227 11.5165 23.633 12.4666 23.633C12.9343 23.633 13.3963 23.5086 13.8017 23.2738L17.7464 20.9962C17.7687 20.9832 17.7902 20.9694 17.8108 20.9546L21.656 18.7348C22.0758 18.5003 22.4248 18.1553 22.6657 17.7364C23.0204 17.1191 23.1135 16.4005 22.9279 15.7132C22.7422 15.0257 22.3 14.4518 21.684 14.0979L17.8623 11.8915C17.824 11.8665 17.7853 11.8426 17.7464 11.8203L13.9345 9.61936C13.4979 9.33147 12.9903 9.17944 12.4648 9.17944C10.9905 9.17944 9.79102 10.3788 9.79102 11.8532V20.9634C9.79102 20.9952 9.79297 21.0266 9.79664 21.0574C9.81203 21.4933 9.93508 21.9214 10.1549 22.3011ZM11.3537 11.8532C11.3537 11.2405 11.8522 10.7419 12.4649 10.7419C12.6876 10.7419 12.902 10.8072 13.0849 10.9308C13.1001 10.941 13.1157 10.9508 13.1315 10.96L16.9668 13.1743C16.986 13.1854 17.0044 13.1972 17.0227 13.2093C17.0357 13.2178 17.0489 13.226 17.0623 13.2338L20.9043 15.4518C21.1597 15.5986 21.3427 15.8361 21.4196 16.1207C21.4964 16.4052 21.4578 16.7025 21.3111 16.9579C21.2108 17.1323 21.0657 17.2756 20.8917 17.3722C20.8878 17.3743 20.8839 17.3765 20.8801 17.3787L16.9635 19.6398C16.9411 19.6527 16.9196 19.6666 16.899 19.6814L13.0196 21.9212C12.8509 22.0188 12.6597 22.0706 12.4666 22.0706C12.0721 22.0706 11.7044 21.8589 11.507 21.5181C11.4091 21.3491 11.3575 21.1575 11.3576 20.9642C11.3576 20.9376 11.3563 20.9111 11.3536 20.8849L11.3537 11.8532Z" fill="#747684"/>
</g>
<defs>
<clipPath id="clip0">
<rect width="40" height="40" fill="white"/>
</clipPath>
</defs>
</svg>
